# xmcd
#
# Track frame offsets: 
#        150
#        24900
#        43351
#        61539
#        79299
#        99078
#        114870
#        135674
#
# Disc length: 2079 seconds
#
# Revision: 0
# Processed by: cddbd v1.5.2PL0 Copyright (c) Steve Scherf et al.
# Submitted via: ExactAudioCopy v0.95b4
#
DISCID=57081d08
DTITLE=Climax Blues Band - Real To Reel
DYEAR=1979
DGENRE=Blues
TTITLE0=Summer rain
TTITLE1=Money In Your Pocket
TTITLE2=Children Of The Nightime
TTITLE3=Long Distance Love
TTITLE4=Lovin' Wheel
TTITLE5=Fallen In Love (For The Very Last Time)
TTITLE6=Fat City
TTITLE7=Crazy World
EXTD=
EXTT0=
EXTT1=
EXTT2=
EXTT3=
EXTT4=
EXTT5=
EXTT6=
EXTT7=
PLAYORDER=
